<?xml version="1.0" encoding="UTF-8" standalone="no"?>
<!-- Created with Inkscape (http://www.inkscape.org/) -->

<svg
   width="177.21683mm"
   height="132.22887mm"
   viewBox="0 0 177.21683 132.22887"
   version="1.1"
   id="svg1"
   xml:space="preserve"
   xmlns="http://www.w3.org/2000/svg"
   xmlns:svg="http://www.w3.org/2000/svg"><defs
     id="defs1" /><g
     id="layer1"
     transform="translate(-11.231613,-45.677923)"><path
       style="fill:#ffffff"
       d="m 125.99967,177.73419 c -4.86796,-0.59076 -10.18149,-1.99228 -13.83663,-3.6496 l -1.74733,-0.79227 0.8971,-3.39603 c 3.8639,-14.62692 11.09733,-30.79192 17.75159,-39.67054 3.28411,-4.38193 7.08966,-7.8461 10.6936,-9.73433 9.28028,-4.86228 25.77881,-3.83076 42.59792,2.6633 1.67349,0.64615 3.72892,1.48264 4.56762,1.85885 l 1.52491,0.68403 -3.65121,3.73258 c -8.31312,8.49838 -15.07894,17.93487 -21.78483,30.38396 -2.55498,4.74317 -3.44991,6.05132 -5.87045,8.58104 -4.36893,4.56599 -10.3806,7.63781 -17.52805,8.95641 -2.78962,0.51464 -10.69546,0.73682 -13.61424,0.3826 z m -58.340625,-3.31894 c -0.43656,-0.0602 -1.92484,-0.23641 -3.30729,-0.39147 -12.35878,-1.38616 -23.123539,-6.1259 -28.626279,-12.60421 -2.60861,-3.07109 -8.443277,-13.40553 -16.454648,-29.14468 -2.936506,-5.76907 -5.975116,-11.47658 -6.752467,-12.68337 -0.77735,-1.20678 -1.353574,-2.25394 -1.280497,-2.32702 0.306082,-0.30608 9.098307,-1.93905 12.764932,-2.37082 5.354961,-0.63058 14.199081,-0.64042 18.472485,-0.0206 6.725776,0.97558 11.894784,2.73934 16.077764,5.48603 7.48385,4.91415 15.97136,16.98071 21.96203,31.22306 2.75995,6.56158 5.67525,16.48406 5.86062,19.94722 l 0.0688,1.28462 -1.19063,0.35491 c -2.70023,0.80489 -6.09381,1.18323 -11.37708,1.26841 -2.98318,0.0481 -5.78115,0.0382 -6.21771,-0.0221 z m 27.462,-24.12072 c -7.24542,-8.23727 -13.24213,-18.32847 -16.23388,-27.31823 -1.61922,-4.86549 -2.12808,-7.72871 -2.2806,-12.83229 -0.22034,-7.37319 0.54851,-10.1355 5.1905,-18.648154 6.88902,-12.63335 13.32254,-29.65237 16.44219,-43.495654 0.55866,-2.479003 0.61037,-2.585322 1.01157,-2.079753 0.23254,0.293044 1.369205,1.69796 2.525915,3.122037 6.05949,7.46009 13.12958,18.58816 16.88311,26.5734 4.87955,10.38076 7.10836,19.23355 6.73114,26.735984 -0.59981,11.9296 -8.05186,27.09164 -20.66084,42.03686 -2.31682,2.74608 -7.283505,7.95632 -7.584415,7.95632 -0.12159,0 -1.0327,-0.92273 -2.02469,-2.05052 z"
       id="path1" /></g></svg>
